<svg xmlns="http://www.w3.org/2000/svg" width="900" height="650" viewBox="0 0 900 650"><rect width="900" height="650" fill="#d4dfe0"/><rect x="470" y="70" width="300" height="340" rx="12" fill="#eaf0e9"/><path d="M620 70v340M470 235h300" stroke="#b9cace" stroke-width="7"/><rect y="490" width="900" height="160" fill="#b6c8c7"/><rect x="150" y="355" width="525" height="70" rx="25" fill="#ecefe6"/><path d="M180 425v105m450-105v105" stroke="#8faaa7" stroke-width="13"/><g transform="translate(340 270) "><path d="M-63 125Q-75 28-27 17L27 17Q73 32 61 125Z" fill="#83a6a3"/><path d="M-40 49Q-80 68-72 106L-13 137" fill="none" stroke="#d7a17e" stroke-width="23" stroke-linecap="round"/><path d="M43 49Q75 78 44 106L-6 128" fill="none" stroke="#d7a17e" stroke-width="22" stroke-linecap="round"/><rect x="-12" y="-8" width="25" height="36" rx="9" fill="#d7a17e"/><ellipse cy="-36" rx="30" ry="39" fill="#d7a17e"/><path d="M-31-30Q-42-86 5-78Q47-75 31-27L20-54Q-4-43-25-57L-29-23Z" fill="#42433a"/><path d="M-11-30h3m18 0h3" stroke="#463a31" stroke-width="3" stroke-linecap="round"/><path d="M-3-15q6 5 12-1" fill="none" stroke="#865d4c" stroke-width="2" stroke-linecap="round"/><path d="M-44 125L-49 240M37 125L44 240" stroke="#414e48" stroke-width="35"/><path d="M-62 241h32m12 0h40" stroke="#303b36" stroke-width="14" stroke-linecap="round"/></g><g transform="translate(605 280) scale(-1 1)"><path d="M-63 125Q-75 28-27 17L27 17Q73 32 61 125Z" fill="#e4e8df"/><path d="M-40 49Q-80 68-72 106L-13 137" fill="none" stroke="#b9896c" stroke-width="23" stroke-linecap="round"/><path d="M43 49Q75 78 44 106L-6 128" fill="none" stroke="#b9896c" stroke-width="22" stroke-linecap="round"/><rect x="-12" y="-8" width="25" height="36" rx="9" fill="#b9896c"/><ellipse cy="-36" rx="30" ry="39" fill="#b9896c"/><path d="M-31-30Q-42-86 5-78Q47-75 31-27L20-54Q-4-43-25-57L-29-23Z" fill="#403b33"/><path d="M-11-30h3m18 0h3" stroke="#463a31" stroke-width="3" stroke-linecap="round"/><path d="M-3-15q6 5 12-1" fill="none" stroke="#865d4c" stroke-width="2" stroke-linecap="round"/><path d="M-44 125L-49 240M37 125L44 240" stroke="#414e48" stroke-width="35"/><path d="M-62 241h32m12 0h40" stroke="#303b36" stroke-width="14" stroke-linecap="round"/></g><rect x="44" y="104" width="133" height="155" rx="5" fill="#e6ece3" stroke="#9fb6b4" stroke-width="5"/><path d="M71 184h79m-40-40v80" stroke="#89a39b" stroke-width="18"/><path d="M760 166v285m-38 0h75M744 200h32v80h-32Z" stroke="#7d9c99" stroke-width="6" fill="#dcebe1"/><filter id="grain"><feTurbulence type="fractalNoise" baseFrequency=".8" numOctaves="3" stitchTiles="stitch"/><feColorMatrix type="saturate" values="0"/><feComponentTransfer><feFuncA type="linear" slope=".035"/></feComponentTransfer></filter><rect width="900" height="650" filter="url(#grain)" opacity=".5"/></svg>